<svg xmlns="http://www.w3.org/2000/svg" width="48" height="48" viewBox="0 0 48 48" version="1.1"><path d="M 18.750 10.162 C 13.844 11.954, 16.411 14.468, 22.004 13.349 C 24.119 12.926, 27.312 13.713, 32.982 16.054 C 37.380 17.870, 40.870 19.450, 40.739 19.565 C 39.725 20.455, 25.440 26.002, 24.145 26.008 C 23.240 26.013, 18.960 24.559, 14.632 22.777 L 6.765 19.538 9.934 18.245 C 12.708 17.114, 13.675 17.205, 17.679 18.976 C 22.984 21.323, 26 21.567, 26 19.650 C 26 18.908, 23.046 17.044, 19.435 15.510 L 12.869 12.719 7.935 15.031 C 1.967 17.826, 1.180 21.003, 5.965 22.986 L 8.930 24.214 9.215 33.857 C 9.477 42.738, 9.658 43.500, 11.500 43.500 C 13.184 43.500, 13.488 42.858, 13.427 39.429 L 13.354 35.357 16.927 36.635 C 27.214 40.313, 39 35.524, 39 27.667 C 39 24.805, 39.493 24.039, 42 23 C 44.087 22.135, 45 21.067, 45 19.488 C 45 17.582, 43.498 16.559, 35.631 13.109 C 25.978 8.876, 23.471 8.438, 18.750 10.162 M 13 27.894 C 13 31.594, 16.741 33.500, 24 33.500 C 31.259 33.500, 35 31.594, 35 27.894 C 35 26.187, 34.790 26.193, 30.750 28.027 C 28.413 29.088, 25.375 29.956, 24 29.956 C 22.625 29.956, 19.587 29.088, 17.250 28.027 C 13.210 26.193, 13 26.187, 13 27.894" stroke="none" fill="#fffcfc" fill-rule="evenodd"/><path d="" stroke="none" fill="#fcfcfc" fill-rule="evenodd"/></svg>